<svg id="Layer_1" data-name="Layer 1" xmlns="http://www.w3.org/2000/svg" viewBox="0 0 141.6 60.51">
  <g id="Super_Bonjour" data-name="Super Bonjour">
    <path id="S" d="M0,15.7H1.24c0,2.09,2.16,4.45,7.49,4.45s7.66-1.21,7.66-3.37C16.39,11.48.72,15.15.75,6.12.75,2.29,4.25,0,8.5,0s8.28,2.39,8.28,6.54H15.57c0-1.6-2.55-2.81-7.13-2.81C3.66,3.73,2.09,5,2.09,6.44c0,4.81,15.64,1.84,15.64,10.34,0,4.25-3.66,7.1-8.93,7.1C3.27,23.88,0,20.15,0,15.7" fill="#fff"/>
    <path id="u" d="M21.62,17.3V7.16H23V16c0,3.44,1.25,4,5.37,4,6.31,0,6.74-3,6.74-6V7.16h1.34V23.39H35.13V19.46c-.59,2.19-3.34,4.32-6.77,4.32-4.78,0-6.74-2.36-6.74-6.48" fill="#fff"/>
    <path id="p" d="M56.23,15.41c0,4.74-2.13,8.37-7,8.37a7.78,7.78,0,0,1-7.1-4.29V30.06H40.79V7.16h1.34v4a7.75,7.75,0,0,1,7.1-4.42c4.87,0,7,3.76,7,8.64m-14,0c0,2.91,1.47,4.94,6.31,4.94s6.38-2,6.38-4.94-1.44-5.08-6.38-5.08S42.2,12.4,42.2,15.41" fill="#fff"/>
    <path id="e" d="M58.85,15.18c0-4.71,3.17-8.41,8.11-8.41,4,0,7.29,2.45,7.29,8.15v1.7H60.12c0,1.76,1.74,3.46,6.9,3.59,3.83-.06,5.83-.75,5.83-2.42h1.34c0,3.31-3.18,6-7.23,6-5.56,0-8.11-3.86-8.11-8.6M73,14c0-1.31-1.18-3.63-6.18-3.63-5.24,0-6.64,2-6.64,3.63Z" fill="#fff"/>
    <path id="r" d="M77.62,7.16H78.9V12c.78-1.73,2.25-5,7-5a6.59,6.59,0,0,1,3.3.82v3.92a10.35,10.35,0,0,0-4.64-1c-5.37,0-5.63,3.79-5.63,6v6.64H77.62Z" fill="#fff"/>
    <path id="B" d="M1.77,31.27H9c2.88,0,9.48.46,9.48,5.95,0,2.39-.94,4.42-4.48,5,3.76.65,4.61,3,4.61,5.4,0,6.24-6.63,6.51-9.35,6.51H1.77ZM8.7,40.52c5.63,0,8.44-.09,8.44-2.71S13.93,35,8.7,35H3.17v5.49ZM8.21,50.4c7.26,0,9.09-.81,9.09-3.07,0-3.08-3.23-3.5-9.09-3.5h-5V50.4Z" fill="#fff"/>
    <path id="o" d="M21.33,46c0-4.71,3.07-8.53,8.34-8.53S38,41.24,38,46s-3,8.61-8.34,8.61S21.33,50.7,21.33,46m15.34,0c0-3-2-4.9-7-4.9s-7,1.9-7,4.9,2,5,7,5,7-1.93,7-5" fill="#fff"/>
    <path id="n" d="M41.22,37.94h1.21v4.25h.09a7.84,7.84,0,0,1,7.33-4.71C54,37.48,56,40.23,56,44.32v9.85H54.63V45.63c0-2.91-1-4.39-5.53-4.39-5.69,0-6.54,3-6.54,5.24v7.69H41.22Z" fill="#fff"/>
    <path id="j" d="M56.23,57.21c4.94,0,5.13-2.06,5.13-4.68V37.94h1.35V52c0,4.09-.23,8.5-6.48,8.5Z" fill="#fff"/>
    <path id="o-2" data-name="o" d="M99.44,54.56h-25c-5.26,0-8.34-3.86-8.34-8.61s3.08-8.53,8.34-8.53h25c5.29,0,8.34,3.82,8.34,8.53s-3,8.61-8.34,8.61m0-3.63c5,0,7-1.93,7-5s-2-4.9-7-4.9h-25c-5,0-7,1.9-7,4.9s2,5,7,5Z" fill="#fff"/>
    <path id="u-2" data-name="u" d="M110.82,48.08V37.94h1.34v8.83c0,3.44,1.24,4,5.37,4,6.31,0,6.73-3,6.73-6V37.94h1.34V54.17h-1.27V50.24c-.59,2.19-3.34,4.32-6.77,4.32-4.78,0-6.74-2.36-6.74-6.48" fill="#fff"/>
    <path id="r-2" data-name="r" d="M130,37.94h1.27v4.84c.79-1.73,2.26-5,7-5a6.72,6.72,0,0,1,3.3.82v3.93c-.65-.53-3-1-4.64-1-5.37,0-5.63,3.79-5.63,6v6.65H130Z" fill="#fff"/>
    <path id="_." data-name="." d="M59.47,33.21a2.55,2.55,0,0,1,5.06,0A2.26,2.26,0,0,1,62,35.4a2.29,2.29,0,0,1-2.54-2.19" fill="#fff"/>
  </g>
</svg>
