<svg id="Layer_1" data-name="Layer 1" xmlns="http://www.w3.org/2000/svg" viewBox="0 0 177 75.64">
  <g id="Super_Bonjour" data-name="Super Bonjour">
    <path id="S" d="M0,19.63H1.55c0,2.61,2.7,5.56,9.37,5.56,6.5,0,9.57-1.52,9.57-4.21C20.49,14.35.9,18.93.94,7.65.94,2.86,5.32,0,10.63,0S21,3,21,8.18H19.46c0-2-3.19-3.52-8.91-3.52-6,0-7.93,1.64-7.93,3.39,0,6,19.54,2.29,19.54,12.93,0,5.31-4.58,8.87-11.16,8.87-6.91,0-11-4.66-11-10.22" fill="#fff"/>
    <path id="u" d="M27,21.63V9H28.7V20c0,4.3,1.56,5,6.71,5,7.89,0,8.42-3.76,8.42-7.52V9h1.68V29.24h-1.6V24.33c-.73,2.74-4.17,5.4-8.46,5.4-6,0-8.42-2.95-8.42-8.1" fill="#fff"/>
    <path id="p" d="M70.29,19.26c0,5.93-2.66,10.46-8.75,10.46a9.72,9.72,0,0,1-8.88-5.35V37.58H51V9h1.67v5a9.71,9.71,0,0,1,8.88-5.52c6.09,0,8.75,4.71,8.75,10.8m-17.54,0c0,3.64,1.84,6.17,7.89,6.17s8-2.53,8-6.17-1.8-6.34-8-6.34-7.89,2.58-7.89,6.34" fill="#fff"/>
    <path id="e" d="M73.56,19c0-5.89,4-10.51,10.14-10.51,5,0,9.12,3.07,9.12,10.18v2.13H75.15c0,2.21,2.17,4.33,8.63,4.5,4.78-.08,7.28-.94,7.28-3h1.67c0,4.13-4,7.49-9,7.49-7,0-10.14-4.83-10.14-10.76m17.7-1.47c0-1.64-1.47-4.54-7.73-4.54-6.54,0-8.3,2.5-8.3,4.54Z" fill="#fff"/>
    <path id="r" d="M97,9h1.59V15c1-2.17,2.82-6.3,8.79-6.3a8.39,8.39,0,0,1,4.13,1v4.91c-.82-.66-3.72-1.23-5.8-1.23-6.71,0-7,4.74-7,7.52v8.3H97Z" fill="#fff"/>
    <path id="B" d="M2.21,39.08h9.08c3.59,0,11.85.58,11.85,7.45,0,3-1.18,5.52-5.6,6.29,4.7.82,5.77,3.81,5.77,6.75,0,7.81-8.3,8.14-11.7,8.14H2.21Zm8.67,11.58c7,0,10.54-.13,10.54-3.4s-4-3.47-10.54-3.47H4v6.87ZM10.26,63c9.08,0,11.37-1,11.37-3.84,0-3.84-4.05-4.37-11.37-4.37H4V63Z" fill="#fff"/>
    <path id="o" d="M26.66,57.44c0-5.88,3.84-10.67,10.43-10.67s10.42,4.79,10.42,10.67S43.71,68.2,37.09,68.2,26.66,63.37,26.66,57.44m19.18,0c0-3.76-2.54-6.13-8.75-6.13s-8.75,2.37-8.75,6.13,2.53,6.22,8.75,6.22,8.75-2.41,8.75-6.22" fill="#fff"/>
    <path id="n" d="M51.52,47.43H53v5.31h.13a9.77,9.77,0,0,1,9.15-5.89c5.2,0,7.65,3.44,7.65,8.55V67.71H68.28V57c0-3.63-1.26-5.47-6.91-5.47-7.11,0-8.17,3.76-8.17,6.54v9.61H51.52Z" fill="#fff"/>
    <path id="j" d="M70.29,71.51c6.17,0,6.42-2.58,6.42-5.85V47.43h1.67V65c0,5.11-.28,10.63-8.09,10.63Z" fill="#fff"/>
    <path id="o-2" data-name="o" d="M124.29,68.2H93.1c-6.58,0-10.42-4.83-10.42-10.76S86.52,46.77,93.1,46.77h31.19c6.63,0,10.43,4.79,10.43,10.67s-3.8,10.76-10.43,10.76m0-4.54c6.22,0,8.75-2.41,8.75-6.22s-2.53-6.13-8.75-6.13H93.1c-6.21,0-8.75,2.37-8.75,6.13s2.54,6.22,8.75,6.22Z" fill="#fff"/>
    <path id="u-2" data-name="u" d="M138.52,60.1V47.43h1.68v11c0,4.29,1.55,5,6.71,5,7.89,0,8.42-3.76,8.42-7.52V47.43H157V67.71h-1.59V62.8c-.74,2.74-4.17,5.4-8.46,5.4-6,0-8.43-3-8.43-8.1" fill="#fff"/>
    <path id="r-2" data-name="r" d="M162.49,47.43h1.59v6c1-2.17,2.82-6.3,8.79-6.3a8.39,8.39,0,0,1,4.13,1v4.91c-.82-.66-3.72-1.23-5.81-1.23-6.7,0-7,4.74-7,7.53v8.3h-1.67Z" fill="#fff"/>
    <path id="_." data-name="." d="M74.33,41.51c0-1.75,1.43-2.77,3.19-2.77s3.14,1,3.14,2.77-1.39,2.74-3.14,2.74-3.19-1-3.19-2.74" fill="#fff"/>
  </g>
</svg>
