<svg width="235" height="100" viewBox="0 0 235 100" fill="none" xmlns="http://www.w3.org/2000/svg">
<path d="M0.0132891 25.9524H2.07107C2.07107 29.418 5.65559 33.3069 14.4975 33.3069C23.1269 33.3069 27.2027 31.3095 27.2027 27.7381C27.2027 18.9815 1.19486 25.0926 1.26124 10.1058C1.26124 3.78305 7.0629 0 14.1258 0C21.1887 0 27.8532 3.96823 27.8532 10.8069H25.8485C25.8485 8.16135 21.6135 6.16403 14.0063 6.16403C6.0406 6.16403 3.47833 8.32009 3.47833 10.6481C3.47833 18.5846 29.4331 13.6772 29.4331 27.7381C29.4331 34.7751 23.3526 39.4841 14.6037 39.4841C5.42992 39.4841 0 33.3069 0 25.9524" fill="white"/>
<path d="M35.8852 28.5979V11.7857H38.1157V26.336C38.1157 32.0106 40.1734 32.9497 47.0106 32.9497C57.4987 32.9497 58.2023 27.9762 58.2023 23.0026V11.6931H60.4195V38.5185H58.3085V32.037C57.3261 35.6481 52.7725 39.1666 47.0637 39.1666C39.0981 39.1666 35.8852 35.2778 35.8852 28.4656" fill="white"/>
<path d="M93.3176 25.41C93.3176 33.2539 89.7861 39.2592 81.701 39.2592C79.2682 39.3058 76.8717 38.6661 74.7881 37.414C72.7045 36.1619 71.0186 34.3483 69.9251 32.1825V49.6428H67.6947V11.7857H69.9251V18.3995C70.9827 16.1887 72.6539 14.326 74.7409 13.032C76.8278 11.738 79.2431 11.0668 81.701 11.0978C89.7861 11.0978 93.3176 17.3148 93.3176 25.3703V25.41ZM70.0313 25.3703C70.0313 30.1852 72.4742 33.5449 80.5062 33.5449C88.5382 33.5449 91.1271 30.1852 91.1271 25.3703C91.1271 20.5555 88.7374 16.9973 80.5062 16.9973C72.275 16.9973 70.0313 20.3968 70.0313 25.3703Z" fill="white"/>
<path d="M97.6589 25.0397C97.6589 17.2487 102.969 11.1375 111.121 11.1375C117.759 11.1375 123.229 15.1984 123.229 24.6032V27.4206H99.783C99.783 30.3439 102.664 33.1481 111.24 33.373C117.586 33.2539 120.892 32.1296 120.892 29.4047H123.122C123.122 34.8677 117.812 39.2989 111.174 39.2989C101.881 39.2989 97.712 32.9233 97.712 25.0793L97.6589 25.0397ZM121.224 23.1349C121.224 20.9656 119.259 17.1296 110.962 17.1296C102.279 17.1296 99.9423 20.4233 99.9423 23.1349H121.224Z" fill="white"/>
<path d="M128.818 11.7857H130.942V19.7222C132.27 16.8519 134.686 11.4021 142.612 11.4021C144.524 11.3621 146.413 11.8179 148.095 12.7249V19.3386C147.006 18.4656 143.156 17.7116 140.381 17.7116C131.486 17.7116 131.088 23.9815 131.088 27.6587V38.6376H128.858L128.818 11.7857Z" fill="white"/>
<path d="M2.93404 51.6402H14.9887C19.7681 51.6402 30.7342 52.3942 30.7342 61.4815C30.7342 65.4497 29.1543 68.7831 23.2995 69.8148C29.5393 70.8995 30.9466 74.8413 30.9466 78.7434C30.9466 89.0741 19.9274 89.4974 15.4268 89.4974H2.93404V51.6402ZM14.4311 66.9577C23.7244 66.9577 28.4374 66.7989 28.4374 62.4735C28.4374 58.1481 23.1269 57.8704 14.4311 57.8704H5.27057V66.9577H14.4311ZM13.6213 83.2936C25.6627 83.2936 28.7029 81.9709 28.7029 78.2143C28.7029 73.1217 23.3925 72.4206 13.6213 72.4206H5.25736V83.2936H13.6213Z" fill="white"/>
<path d="M35.394 75.9259C35.394 68.1349 40.5053 61.8121 49.241 61.8121C57.9766 61.8121 63.088 68.1349 63.088 75.9259C63.088 83.7169 58.0297 90.1455 49.241 90.1455C40.4522 90.1455 35.394 83.7698 35.394 75.9259ZM60.8575 75.9259C60.8575 70.9524 57.4854 67.8174 49.241 67.8174C40.9965 67.8174 37.6244 70.9524 37.6244 75.9259C37.6244 80.8995 40.9832 84.1534 49.241 84.1534C57.4987 84.1534 60.8575 80.9524 60.8575 75.9259Z" fill="white"/>
<path d="M68.3984 62.672H70.4163V69.709H70.5756C71.5991 67.3555 73.3017 65.3583 75.467 63.971C77.6324 62.5838 80.1627 61.8692 82.7366 61.918C89.6269 61.918 92.8795 66.4682 92.8795 73.2275V89.4444H90.6624V75.3836C90.6624 70.5688 88.9763 68.1349 81.4886 68.1349C72.036 68.1349 70.6288 73.1085 70.6288 76.7989V89.4444H68.3984V62.672Z" fill="white"/>
<path d="M93.3176 94.537C101.522 94.537 101.841 91.1243 101.841 86.7989V62.672H104.071V85.9392C104.071 92.6984 103.686 100 93.3176 100V94.537Z" fill="white"/>
<path d="M165.022 90.1455H123.614C114.865 90.1455 109.767 83.7698 109.767 75.9259C109.767 68.082 114.865 61.8121 123.614 61.8121H165.022C173.81 61.8121 178.869 68.1349 178.869 75.9259C178.869 83.7169 173.81 90.1455 165.022 90.1455ZM165.022 84.1534C173.279 84.1534 176.638 80.9524 176.638 75.9259C176.638 70.8995 173.279 67.8174 165.022 67.8174H123.614C115.356 67.8174 111.997 70.9524 111.997 75.9259C111.997 80.8995 115.329 84.1534 123.614 84.1534H165.022Z" fill="white"/>
<path d="M183.914 79.4444V62.672H186.144V77.2222C186.144 82.91 188.202 83.836 195.039 83.836C205.514 83.836 206.217 78.8624 206.217 73.8889V62.5794H208.448V89.4444H206.337V82.963C205.354 86.5873 200.788 90.0926 195.092 90.0926C187.126 90.0926 183.914 86.2037 183.914 79.3915" fill="white"/>
<path d="M215.723 62.672H217.847V70.6746C219.175 67.8175 221.591 62.3545 229.517 62.3545C231.428 62.3211 233.316 62.7765 235 63.6772V70.172C233.911 69.2989 230.048 68.545 227.287 68.545C218.378 68.545 217.993 74.8148 217.993 78.4921V89.4444H215.763L215.723 62.672Z" fill="white"/>
<path d="M98.6944 54.8545C98.6944 52.5264 100.593 51.1772 102.916 51.1772C105.24 51.1772 107.098 52.5 107.098 54.8545C107.098 57.209 105.253 58.4656 102.916 58.4656C100.58 58.4656 98.6944 57.1428 98.6944 54.8545Z" fill="white"/>
</svg>
