<svg width="48" height="82" viewBox="0 0 48 82" fill="none" xmlns="http://www.w3.org/2000/svg">
<path d="M10.1951 36.3254C11.2867 32.6958 14.2446 33.2833 14.0811 37.4725C14.0165 39.1947 10.8698 54.7149 11.1139 56.4206C11.1151 56.6385 11.18 56.8514 11.3005 57.0329C11.4211 57.2145 11.5921 57.3568 11.7925 57.4425V57.4425L11.8295 57.4524C12.0491 57.5587 12.3 57.5807 12.5348 57.5144C12.7695 57.4481 12.9718 57.298 13.1033 57.0926V57.0926L13.1231 57.0185C13.3697 56.6414 14.3708 52.5841 14.5428 51.9423C16.7468 43.5442 25.9928 8.42036 27.202 3.88297C27.2926 3.50625 27.5032 3.16915 27.8019 2.92237C28.1006 2.67559 28.4714 2.53247 28.8584 2.51454C29.244 2.49236 29.6269 2.59125 29.9535 2.79736C30.2801 3.00347 30.5342 3.30649 30.6802 3.66408C30.8125 3.98553 30.8422 4.34002 30.7654 4.67903L30.6628 5.06164C29.5059 9.62625 20.1755 47.8295 18.942 52.4331C18.8824 52.6553 19.1905 52.7643 19.234 52.5775C19.6837 50.899 30.0429 18.977 30.5297 17.3084L33.6362 6.75126C33.7138 6.29244 33.966 5.88143 34.3398 5.60433C34.7137 5.32723 35.1802 5.20554 35.6418 5.26472C35.6644 5.25989 35.6863 5.25246 35.7072 5.24258C35.8739 5.28723 36.0466 5.33353 36.2133 5.37817L36.3341 5.47009C36.7108 5.66925 37.0041 5.99633 37.161 6.39245C37.318 6.78857 37.3284 7.22772 37.1904 7.63085L35.2905 14.0798C34.4917 16.7892 25.138 51.1302 24.4055 53.864C24.3542 54.0553 24.3821 54.1488 24.5055 54.1818C24.9251 54.2943 24.7132 54.2706 25.0325 54.3627C25.1991 54.4074 25.2662 54.3791 25.3047 54.2108C25.518 53.4147 25.7296 52.6248 25.9429 51.8287L26.0884 51.2857C27.0905 47.546 28.0727 43.8804 29.0648 40.1778C29.1091 39.948 29.2003 39.7297 29.3326 39.5366C29.4649 39.3436 29.6355 39.1798 29.8339 39.0555C30.0322 38.9312 30.254 38.849 30.4854 38.8142C30.7169 38.7793 30.953 38.7924 31.1792 38.8527C31.4094 38.9091 31.626 39.011 31.8163 39.1524C32.0065 39.2938 32.1665 39.4719 32.2868 39.6761C32.4072 39.8803 32.4854 40.1066 32.517 40.3415C32.5485 40.5764 32.5327 40.8153 32.4704 41.044C31.7776 43.6297 31.356 46.2153 30.657 48.7993L30.4999 49.3856C29.989 51.2924 29.5949 53.1579 29.0778 55.0631C29.0216 55.2729 29.045 55.3585 29.2688 55.4119C29.6761 55.521 29.8368 55.6368 30.2441 55.746C30.5465 55.827 30.5465 55.827 30.6259 55.5308C31.3005 53.013 31.8561 50.5691 32.5312 48.025L32.6288 47.6609C32.7386 47.2322 32.8819 46.8128 33.0575 46.4066C33.1761 46.1981 33.3351 46.0154 33.5253 45.8692C33.7155 45.723 33.9329 45.6162 34.1649 45.5551C34.3969 45.4941 34.6387 45.48 34.8763 45.5136C35.1138 45.5473 35.3422 45.628 35.548 45.7512L35.9214 46.0364C36.1491 46.2509 36.3141 46.5234 36.3989 46.8245C36.4836 47.1257 36.4849 47.4443 36.4025 47.7461C35.2301 52.1214 34.1903 56.4462 33.0056 60.8182C32.4225 62.9945 31.8162 65.1668 31.1867 67.3351C30.9816 68.1003 30.8907 68.4398 30.5875 69.4234C30.1543 70.9342 29.4533 72.3548 28.5177 73.6177C27.5222 74.9748 26.2385 76.0946 24.7588 76.8966C23.2791 77.6986 21.6401 78.1629 19.9596 78.2562C16.2136 78.4628 12.036 77.8858 9.11091 75.3493C6.91818 73.6712 5.27212 71.3807 4.38072 68.7673C3.48933 66.154 3.39261 63.335 4.1028 60.6667C4.16056 60.5499 9.93066 37.2136 10.1951 36.3254Z" fill="#BD62FF" stroke="#404041" stroke-miterlimit="10"/>
<path d="M32.5327 47.4762C31.5225 50.1356 26.4995 60.5629 26.4995 60.5629C26.416 60.7896 26.3801 61.031 26.3942 61.2722C26.4082 61.5134 26.4718 61.7491 26.581 61.9646C26.6903 62.1801 26.8428 62.3707 27.029 62.5246C27.2153 62.6785 27.4313 62.7923 27.6635 62.859C27.8893 62.9474 28.1313 62.9872 28.3735 62.9758C28.6158 62.9644 28.8529 62.902 29.0694 62.7927C29.2859 62.6835 29.477 62.5298 29.6301 62.3417C29.7832 62.1536 29.8949 61.9354 29.958 61.7012C29.958 61.7012 34.8678 51.9183 36.2587 47.8132C36.3843 47.4407 36.3822 47.0371 36.2529 46.6659C36.1236 46.2948 35.8745 45.9772 35.5447 45.7633C34.2058 44.8358 33.2638 45.5622 32.5327 47.4762Z" fill="#BD62FF" stroke="#404041" stroke-miterlimit="10"/>
<path d="M30.5754 60.3588C30.7398 59.8898 30.7311 59.3774 30.5507 58.9142C30.3704 58.4511 30.0303 58.0677 29.592 57.8333C28.7558 57.4241 27.8586 57.8847 27.3587 58.7628L26.667 60.0854C26.5472 60.2784 26.4703 60.4948 26.4415 60.72C26.4126 60.9453 26.4326 61.1741 26.4999 61.391C26.5672 61.6079 26.6804 61.8078 26.8317 61.9771C26.9831 62.1464 27.169 62.2812 27.377 62.3724C28.2132 62.7816 29.4557 62.7111 29.9232 61.7318L30.5754 60.3588Z" fill="#BD62FF" stroke="#404041" stroke-miterlimit="10"/>
<path d="M28.7062 40.6768C27.9753 43.4044 21.0373 65.3232 21.0373 65.3232C20.9543 65.5514 20.9193 65.7944 20.9345 66.0368C20.9498 66.2792 21.015 66.5159 21.126 66.732C21.237 66.948 21.3915 67.1388 21.5797 67.2923C21.7679 67.4459 21.9859 67.5589 22.2198 67.6243C22.4477 67.7124 22.6917 67.7513 22.9358 67.7384C23.1798 67.7255 23.4183 67.6611 23.6357 67.5494C23.8531 67.4377 24.0443 67.2813 24.1969 67.0904C24.3494 66.8995 24.4599 66.6784 24.5209 66.4418C24.5209 66.4418 31.0894 45.1119 32.445 40.9907C32.5655 40.6168 32.5587 40.2136 32.4255 39.844C32.2924 39.4744 32.0404 39.1594 31.7092 38.9482C30.3267 38.0354 29.1206 39.2534 28.7062 40.6768Z" fill="#BD62FF" stroke="#404041" stroke-miterlimit="10"/>
<path d="M25.0469 64.8234C25.1993 64.3888 25.1789 63.9122 24.9898 63.4922C24.8007 63.0722 24.4575 62.741 24.031 62.567C23.5601 62.4338 23.0569 62.4762 22.615 62.6863C22.173 62.8963 21.8224 63.2598 21.6283 63.709L21.1336 65.1109C21.0729 65.3474 21.0593 65.5935 21.0936 65.8352C21.128 66.077 21.2096 66.3096 21.3339 66.5197C21.4581 66.7299 21.6226 66.9136 21.8178 67.0602C22.013 67.2068 22.2352 67.3136 22.4717 67.3743C22.6792 67.4559 22.9015 67.4929 23.1242 67.4827C23.3469 67.4726 23.565 67.4155 23.7641 67.3153C23.9633 67.2151 24.139 67.074 24.2799 66.9012C24.4208 66.7284 24.5236 66.5278 24.5817 66.3126L25.0469 64.8234Z" fill="#BD62FF" stroke="#404041" stroke-miterlimit="10"/>
<path d="M8.98242 40.5046C9.37742 40.4987 9.76033 40.3675 10.076 40.1299C10.3916 39.8924 10.6237 39.5607 10.7388 39.1828C11.4347 37.4248 11.7029 35.8563 10.6382 34.8435" stroke="#404041" stroke-miterlimit="10"/>
</svg>
