<?xml version="1.0" encoding="utf-8"?>
<!-- Generator: Adobe Illustrator 26.0.2, SVG Export Plug-In . SVG Version: 6.00 Build 0)  -->
<svg version="1.1" id="SUPERBONJOUR" xmlns="http://www.w3.org/2000/svg" xmlns:xlink="http://www.w3.org/1999/xlink" x="0px"
	 y="0px" viewBox="0 0 32 32" style="enable-background:new 0 0 32 32;" xml:space="preserve">
<style type="text/css">
	.st0{fill:#F38B00;}
	.st1{fill:#0000FF;}
</style>
<circle id="CIRCLE" class="st0" cx="16" cy="16" r="15.5"/>
<path id="EYE_00000009574048100083337540000017700435212873390234_" class="st1" d="M25.1,9.6c0-0.9,0.8-1.5,1.7-1.5
	c0.9,0,1.7,0.6,1.7,1.5c0,0.9-0.7,1.5-1.7,1.5C25.9,11,25.1,10.5,25.1,9.6"/>
<path id="EYE" class="st1" d="M5.2,11c0.9,0,1.7-0.5,1.7-1.5c0-0.9-0.7-1.5-1.7-1.5c-0.9,0-1.7,0.6-1.7,1.5C3.5,10.5,4.3,11,5.2,11z
	"/>
<path id="SMILE" class="st1" d="M24.4,12.4H7.6C4.1,12.4,2,15,2,18.2c0,3.2,2.1,5.8,5.6,5.8h16.8c3.6,0,5.6-2.6,5.6-5.8
	C30,15,28,12.4,24.4,12.4z M26.8,15.2c1.5,0.5,2.2,1.4,2.3,2.8h-2.3V15.2z M5.2,21.2c-1.5-0.5-2.2-1.5-2.3-2.8h2.3V21.2z M5.2,17.9
	H2.9c0.1-1.3,0.8-2.3,2.3-2.8V17.9z M7.7,21.5H7.6c-0.7,0-1.4-0.1-1.9-0.2v-2.9h2.1V21.5z M7.7,17.9H5.7v-2.9
	c0.6-0.1,1.2-0.2,1.9-0.2h0.1V17.9z M11.6,21.5H8.2v-3.1h3.4V21.5z M11.6,17.9H8.2v-3.1h3.4V17.9z M15.8,21.5H12v-3.1h3.7V21.5z
	 M15.8,17.9H12v-3.1h3.7V17.9z M20,21.5h-3.8v-3.1H20V21.5z M20,17.9h-3.8v-3.1H20V17.9z M23.7,21.5h-3.2v-3.1h3.2V21.5z M23.7,17.9
	h-3.2v-3.1h3.2V17.9z M26.3,21.3c-0.6,0.1-1.2,0.2-1.9,0.2h-0.2v-3.1h2.2V21.3z M26.3,17.9h-2.2v-3.1h0.2c0.7,0,1.4,0.1,1.9,0.2
	V17.9z M26.8,21.2v-2.8h2.3C29,19.7,28.3,20.7,26.8,21.2z M29.1,18.2C29.1,18.2,29.1,18.2,29.1,18.2C29.1,18.2,29.1,18.2,29.1,18.2
	L29.1,18.2z"/>
</svg>
