<svg width="177" height="76" viewBox="0 0 177 76" fill="none" xmlns="http://www.w3.org/2000/svg">
<g clip-path="url(#clip0_1934:570)">
<path d="M0 19.66H1.54999C1.54999 22.28 4.24997 25.22 10.91 25.22C17.41 25.22 20.48 23.71 20.48 21.01C20.48 14.39 0.890002 19.01 0.940002 7.67999C0.940002 2.89999 5.31 0.0400047 10.63 0.0400047C15.95 0.0400047 20.97 3.03999 20.97 8.20999H19.46C19.46 6.20999 16.27 4.70001 10.54 4.70001C4.53998 4.70001 2.60999 6.32999 2.60999 8.08999C2.60999 14.09 22.16 10.38 22.16 21.01C22.16 26.33 17.58 29.89 10.99 29.89C4.07999 29.89 -0.0100098 25.22 -0.0100098 19.66" fill="white"/>
<path d="M27.02 21.66V8.95001H28.7V19.95C28.7 24.24 30.25 24.95 35.4 24.95C43.3 24.95 43.83 21.19 43.83 17.43V8.88H45.5V29.16H43.91V24.26C43.17 26.99 39.74 29.65 35.44 29.65C29.44 29.65 27.02 26.71 27.02 21.56" fill="white"/>
<path d="M70.28 19.25C70.28 25.18 67.62 29.72 61.53 29.72C59.6975 29.7552 57.8924 29.2716 56.3229 28.325C54.7535 27.3784 53.4837 26.0073 52.66 24.37V37.57H50.98V8.94999H52.66V13.95C53.4566 12.2786 54.7154 10.8705 56.2874 9.89222C57.8593 8.91396 59.6786 8.40651 61.53 8.42997C67.62 8.42997 70.28 13.13 70.28 19.22V19.25ZM52.74 19.22C52.74 22.86 54.58 25.4 60.63 25.4C66.68 25.4 68.63 22.86 68.63 19.22C68.63 15.58 66.83 12.89 60.63 12.89C54.43 12.89 52.74 15.46 52.74 19.22Z" fill="white"/>
<path d="M73.55 18.97C73.55 13.08 77.55 8.45999 83.69 8.45999C88.69 8.45999 92.81 11.53 92.81 18.64V20.77H75.15C75.15 22.98 77.32 25.1 83.78 25.27C88.56 25.18 91.05 24.33 91.05 22.27H92.73C92.73 26.4 88.73 29.75 83.73 29.75C76.73 29.75 73.59 24.93 73.59 19L73.55 18.97ZM91.3 17.53C91.3 15.89 89.82 12.99 83.57 12.99C77.03 12.99 75.27 15.48 75.27 17.53H91.3Z" fill="white"/>
<path d="M97.02 8.95001H98.62V14.95C99.62 12.78 101.44 8.66 107.41 8.66C108.85 8.62977 110.273 8.97437 111.54 9.66V14.66C110.72 14 107.82 13.43 105.73 13.43C99.03 13.43 98.73 18.17 98.73 20.95V29.25H97.05L97.02 8.95001Z" fill="white"/>
<path d="M2.20001 39.08H11.28C14.88 39.08 23.14 39.65 23.14 46.52C23.14 49.52 21.95 52.04 17.54 52.82C22.24 53.64 23.3 56.62 23.3 59.57C23.3 67.38 15 67.7 11.61 67.7H2.20001V39.08ZM10.86 50.66C17.86 50.66 21.41 50.54 21.41 47.27C21.41 44 17.41 43.79 10.86 43.79H3.95996V50.66H10.86ZM10.25 63.01C19.32 63.01 21.61 62.01 21.61 59.17C21.61 55.32 17.61 54.79 10.25 54.79H3.95001V63.01H10.25Z" fill="white"/>
<path d="M26.65 57.44C26.65 51.55 30.5 46.77 37.08 46.77C43.66 46.77 47.51 51.55 47.51 57.44C47.51 63.33 43.7 68.19 37.08 68.19C30.46 68.19 26.65 63.37 26.65 57.44ZM45.83 57.44C45.83 53.68 43.29 51.31 37.08 51.31C30.87 51.31 28.33 53.68 28.33 57.44C28.33 61.2 30.86 63.66 37.08 63.66C43.3 63.66 45.83 61.24 45.83 57.44" fill="white"/>
<path d="M51.51 47.42H53.03V52.74H53.15C53.9209 50.9607 55.2034 49.4508 56.8344 48.4021C58.4653 47.3533 60.3713 46.8131 62.31 46.85C67.5 46.85 69.95 50.29 69.95 55.4V67.66H68.28V57.03C68.28 53.39 67.01 51.55 61.37 51.55C54.25 51.55 53.19 55.31 53.19 58.1V67.66H51.51V47.42Z" fill="white"/>
<path d="M70.28 71.51C76.46 71.51 76.7 68.93 76.7 65.66V47.42H78.38V65.01C78.38 70.12 78.09 75.64 70.28 75.64V71.51Z" fill="white"/>
<path d="M124.29 68.19H93.1C86.51 68.19 82.67 63.37 82.67 57.44C82.67 51.51 86.51 46.77 93.1 46.77H124.29C130.91 46.77 134.72 51.55 134.72 57.44C134.72 63.33 130.91 68.19 124.29 68.19V68.19ZM124.29 63.66C130.51 63.66 133.04 61.24 133.04 57.44C133.04 53.64 130.51 51.31 124.29 51.31H93.1C86.88 51.31 84.35 53.68 84.35 57.44C84.35 61.2 86.86 63.66 93.1 63.66H124.29Z" fill="white"/>
<path d="M138.52 60.1V47.42H140.2V58.42C140.2 62.72 141.75 63.42 146.9 63.42C154.79 63.42 155.32 59.66 155.32 55.9V47.35H157V67.66H155.41V62.76C154.67 65.5 151.23 68.15 146.94 68.15C140.94 68.15 138.52 65.21 138.52 60.06" fill="white"/>
<path d="M162.48 47.42H164.08V53.47C165.08 51.31 166.9 47.18 172.87 47.18C174.31 47.1548 175.731 47.4991 177 48.18V53.09C176.18 52.43 173.27 51.86 171.19 51.86C164.48 51.86 164.19 56.6 164.19 59.38V67.66H162.51L162.48 47.42Z" fill="white"/>
<path d="M74.33 41.51C74.33 39.75 75.76 38.73 77.51 38.73C79.26 38.73 80.66 39.73 80.66 41.51C80.66 43.29 79.27 44.24 77.51 44.24C75.75 44.24 74.33 43.24 74.33 41.51Z" fill="white"/>
</g>
<defs>
<clipPath id="clip0_1934:570">
<rect width="177" height="76" fill="white"/>
</clipPath>
</defs>
</svg>
